<?xml version="1.0" encoding="utf-8"?>
<svg viewBox="0 0 500 500" xmlns="http://www.w3.org/2000/svg">
  <defs>
    <linearGradient gradientUnits="userSpaceOnUse" x1="249.845" y1="4.235" x2="249.845" y2="494.295" id="gradient-0" gradientTransform="matrix(0.759244, -0.650806, 0.754099, 0.879747, -169.930844, 203.411664)">
      <stop offset="0" style="stop-color: rgb(32.941% 62.353% 9.8039%)"/>
      <stop offset="1" style="stop-color: rgb(226, 240, 211);"/>
    </linearGradient>
  </defs>
  <path d="M 490.067 55.41 C 510.141 91.734 450.611 152.021 405.619 185.348 C 361.316 218.675 331.552 225.416 347.473 280.088 C 363.394 334.385 424.308 436.613 391.775 475.183 C 359.933 513.753 235.334 488.663 166.115 446.724 C 97.585 404.783 84.433 345.619 73.357 301.807 C 62.283 257.994 53.282 229.535 34.594 185.348 C 15.212 140.787 -13.861 80.124 24.21 45.674 C 62.283 10.848 167.498 2.611 269.253 4.483 C 371.7 6.73 470.686 19.462 490.067 55.41 Z" style="fill-rule: nonzero; paint-order: fill; fill: url('#gradient-0');" transform="matrix(1, 0, 0, 1, 0, 7.105427357601002e-15)"/>
</svg>
